<?xml version="1.0" encoding="utf-8"?>
<!-- Generator: Adobe Illustrator 22.0.0, SVG Export Plug-In . SVG Version: 6.00 Build 0)  -->
<svg version="1.1" id="Layer_1" xmlns="http://www.w3.org/2000/svg" xmlns:xlink="http://www.w3.org/1999/xlink" x="0px" y="0px"
	 viewBox="0 0 2500 2500" style="enable-background:new 0 0 2500 2500;" xml:space="preserve">
<style type="text/css">
	.st0{display:none;}
	.st1{display:none;fill:#FFFFFF;}
	.st2{fill:#FF6A76;}
	.st3{fill:#78CFEF;}
	.st4{fill:#FBC792;}
	.st5{fill:#FFFFFF;}
</style>
<rect class="st0" width="2500" height="2500"/>
<g>
	<path class="st1" d="M2242.7,1290.6c-18.4-12.3-37.9-18.5-57.9-18.5c-15.2,0-28.4,3.4-39.7,8.7c4.5-11.8,10.5-24.1,17.9-37.3
		c82.8-146.8,74.5-303,67.2-440.8c-3.8-71.7-51.1-95-71.2-101.7c-10.8-3.6-21.8-5.4-32.6-5.4c-27.1,0-51.3,10.5-72.1,31.2
		c-7.3-40-10.2-80.9-5.3-122.4l0.2-1.9c1.5-12.2,3.4-28.9-0.4-47.7c-6.1-30.1-24.8-54.2-52.7-68c-15.3-7.6-31.5-11.4-48-11.4
		c-31.9,0-62.9,14.9-87.1,41.8c-18.2,20.2-34.4,41-50,61.2c-0.9,1.2-1.9,2.4-2.8,3.6c-10.9-22.3-20.7-44.4-28.4-66.5
		c-5-14.3-11.7-30.9-23.9-46.4c-18.1-23-43-36.8-72.2-40c-4.3-0.5-8.6-0.7-12.9-0.7c-22,0-50.8,6.2-77.4,31.3
		c-31.8-64-61.8-124.7-83-188c-4.5-13.5-11.3-31-23.9-47.2c-18.4-23.5-43.7-37.4-73.1-40.3c-3.6-0.4-7.2-0.5-10.7-0.5
		c-8.7,0-17.2,1.1-25.3,3.1c-4.5-10.7-9.3-21.4-14.3-32.2c-1.1-2.4-2.6-6.1-4.1-10c-5.1-13.2-12.2-31.3-25.5-47.8
		c-20.6-25.6-50.1-39.7-83.2-39.7c-1.5,0-3,0-4.5,0.1c-32.8,1.2-61,15.4-81.4,41.1c-13.2,16.6-20.3,34.7-25.5,47.9
		c-1.6,4.1-3.1,7.9-4.3,10.4c-4.7,9.8-9,19.8-13.2,29.7c-7.4-1.8-15.2-2.7-23.1-2.7c-6.5,0-13.2,0.6-19.9,1.8
		c-28.9,5.3-53.1,20.7-70.1,44.6c-11.3,16-17.2,32.8-21.5,45c-1.4,4.1-2.8,8-3.9,10.4c-5.6,12.6-9.9,24.6-14.2,36.3
		c-4.1,11.3-8,21.9-12.2,31c-16.8,35.8-33.7,71-51.1,107.1c-1.6-1.5-3.2-2.9-4.9-4.4c-21-17.8-46.4-27.2-73.4-27.2c-1,0-2,0-3,0
		c-32.1,0.8-60.7,14.8-80.6,39.5c-13.4,16.7-20.4,34.9-25.5,50.6c-6.7,20.8-16,41.3-26.3,62.4c-16.5-23.8-34.9-47.2-57.8-68.9
		c-25.5-24.1-53.4-36.3-82.8-36.3c-18.2,0-35.8,4.7-52.3,14.1C473.1,504,455.6,528,449.7,557c-3.8,18.7-2.2,36.1-0.1,50.7
		c5.7,39.9,3.3,78.9-4.4,119.3c-15.1-15.3-38.6-31.4-72.2-31.4c-11.1,0-22.3,1.9-33.3,5.6c-25.5,8.7-45.4,25.7-57.6,49.3
		c-8.1,15.5-12.4,33.7-13,53.8c-0.3,10.3-0.6,20.7-0.9,31c-2.1,66.7-4.3,135.8,3.7,204.8c9.5,81.7,32.3,151.6,69.7,213.9
		c5.7,9.6,10.5,19.3,14.2,29.2c-12.2-6.2-26.7-10.6-43.7-10.6c-18.8,0-37,5.5-54.1,16.2c-29.9,18.8-46.8,47.9-47.6,82
		c-0.5,21.6,5.5,39.6,10,52.8c0.8,2.4,1.6,4.7,2.1,6.5c1.7,5.6,3.4,11.2,5.1,16.8c15.6,50.7,30.3,98.6,30.6,145.7
		c0.6,120.8,42.9,228.1,125.7,318.8c4.2,4.6,8.5,9.5,12.7,14.7c-12.9,8.3-23.9,19.4-32.7,33.1c-16.7,26.2-21.4,57-13.2,86.8
		c5.9,21.5,17.2,38.4,26.4,50.7c36.2,48.6,73,87.2,112.7,118c46.9,36.5,98.7,62.3,154,76.9c66.7,17.6,118.8,39.7,164.2,69.6
		c27.9,18.4,60.1,32.5,93.3,40.7c95.4,23.6,191.5,29.4,284.5,34.9c27.1,1.6,55,3.3,82.1,5.4c6.4,0.5,13,0.7,19.7,0.7
		c29.7,0,58.3-4.6,85.9-9.1c17.8-2.9,34.7-5.6,50.3-6.8c7-0.6,14-1.1,21.1-1.6c78.9-5.8,168.3-12.5,248.5-65.6
		c44.4-29.4,94.8-51,154.1-66c56.6-14.3,109.5-39.9,157.1-76.1c41-31.1,78.8-70.1,115.6-119.2c7.7-10.2,19.2-25.7,26.2-45.5
		c10.5-29.8,7.6-61.3-8.1-88.8c-9.1-15.8-21.1-28.6-35.4-38c7.9-9.9,15.7-19.4,23.1-28.3c33.8-40.6,59-80.2,77.2-121.1
		c20.8-47,32.3-96.6,34.1-147.5c2.2-62,13-121.9,32.2-177.9c0.9-2.6,2.5-6.4,4.1-10.4c6.1-14.7,14.4-34.8,15.7-58.1
		C2291.5,1345.6,2274.5,1311.9,2242.7,1290.6z"/>
	<g>
		<path d="M471.5,887c33.2-98.5,60.8-190.4,46.6-289.2c-2.7-18.5-3.9-37.5,14.9-48.2c20.4-11.6,38.6-1.7,53.5,12.4
			c37.4,35.3,62.6,80,90.4,122.5c16.6,25.5,27,29,41.5-1.9c22.2-47.5,49.3-92.7,65.6-143c6.6-20.4,15.6-41.5,41.9-42.2
			c24.4-0.6,37.5,16.9,50,34.9c13.8,19.9,16.3,46.2,39.1,66.8c35.5-73.7,70.3-145.1,104.1-217c10.4-22.2,17.1-46.2,27.1-68.6
			c10.3-23.3,13.3-54.2,44.6-60c34.8-6.3,37,30.9,58.8,50.5c16.2-40.8,29.8-80.3,47.6-117.8c11.4-24,17.1-58.7,51.2-60
			c35.5-1.3,40.8,33.9,52.1,57.8c17.9,38.1,32.2,77.9,49.8,121.1c6.2-8.1,10.6-12.6,13.4-17.8c9.7-17.6,19-36.8,42.9-34.4
			c23,2.3,31.9,21.8,38.2,40.6c35.5,105.9,92.2,201.9,141.3,309.8c15.1-28.5,26.3-51.4,39.2-73.3c11.2-19,26.2-35.1,50.8-32.4
			c23.2,2.5,31.6,21.4,38.2,40.4c20.6,59.1,51.9,112.8,82.7,173.9c27.9-24.3,40.2-55.1,59.7-80c18.1-23.2,35.9-46.8,55.6-68.7
			c13.8-15.3,32.2-24.9,53-14.6c20.1,9.9,17,29.2,14.8,47.6c-11.6,98.6,12.4,191.4,48,289.6c23.4-35.5,43.3-66.6,64.2-97.1
			c10.5-15.2,23.6-29.2,44.8-22.2c18.2,6,23.1,22.9,24,39.7c7.3,138.2,13.3,276.1-58.4,403.2c-25.3,44.9-42.2,92.6-37.2,145.6
			c1.7,18.6,4.7,37.3,24.2,44.9c18.4,7.3,29.9-7.6,42.8-17.6c21.6-17,37.8-57.1,71.8-34.3c31.5,21.1,8.8,55.1-0.1,81.1
			c-22,64.4-33.5,130.7-35.8,197.9c-3.1,88.7-40.3,160.7-95.3,226.7c-25.1,30.2-49.8,61.1-71.3,93.9c-12.1,18.5-15.8,40.2,20.6,32.4
			c22.3-4.8,43.5-3.6,56.2,18.6c13,22.7-0.8,41.6-13.4,58.5c-60.4,80.7-133.4,144.1-234.3,169.6c-62.3,15.8-121,39.4-175.4,75.4
			c-71.3,47.3-155,49.5-236.8,55.9c-48.8,3.8-99.6,18.7-145.3,15.2c-118.5-9.1-238.8-9.6-355.3-38.5c-25.1-6.2-50.3-17.1-71.8-31.3
			c-57-37.7-119.1-61.5-184.7-78.8c-98.5-26-169.7-89.9-228.9-169.4c-12.8-17.2-24.2-37.2-10.3-58.9c12.3-19.3,32.2-20.4,52.7-16.5
			c32.9,6.2,35.8-10.7,21.8-32.6c-18.5-28.9-38.7-57.2-61.8-82.5c-70.7-77.5-107.1-167.4-107.7-272.6
			c-0.3-63.2-20.6-122.6-38.7-182.3c-6.5-21.2-19.6-46.4,6.2-62.6c25.9-16.3,41.5,6.5,58.4,21.8c16.4,14.9,30.6,41.3,56.7,30.3
			c29-12.3,25.8-42.9,25-69.1c-1.2-40.3-13.7-78.2-34-112c-77.5-129.1-66.5-271-62.6-412.1c0.5-17.2,5.6-33.3,23.7-39.5
			c21.4-7.3,34.1,7,44.5,22.2C427.6,819.5,447.6,850.8,471.5,887z"/>
		<path class="st2" d="M495.8,2043.8c65.3-18,80-48.1,56.3-107.1c-15.6-38.9-42.8-70.1-70.6-100.1
			c-65.2-70.6-101.1-151.5-100.5-249.1c0.2-34-8.7-68.2-14.9-102c-3.4-18.6-6.5-29.4,21.1-29.2c63.4,0.3,94.4-30.3,100.9-95
			c5.7-57.4-8.3-111.7-36.6-160.8c-57.6-99.7-68.7-207-58.3-326.2c24.9,23.2,33.4,51.2,47.7,74.9c10.8,17.9,17.8,42,46,35
			c23.4-5.8,33.9-23.8,36.4-47.2c10.1-96.3,56.1-185.6,52.3-284.7c4-1.7,8.1-3.4,12.1-5c31.2,47.8,62.5,95.6,93.6,143.6
			c6.2,9.6,10.8,20.4,17.6,29.5c7.2,9.5,17.2,16,29.9,12.6c12.8-3.4,19.5-13.8,18.1-26c-10.7-89.9,56.5-151.1,81-231.7
			c22.7,13.1,23.6,34.4,31.6,51c10,20.9,17.6,44.1,46.3,44.5c26.5,0.3,42.9-17.3,53.2-38.2c38.2-77.9,74.9-156.6,111.8-235.2
			c7.5-16,8.9-35.2,24.1-47.3c61.9,48.6,85.6,40.9,112.1-36c11.6-33.5,16.6-69.8,40.8-102.8c23.5,22.2,26.9,50.4,36.4,75.3
			c8.8,22.9,15.4,47.1,27.2,68.4c17.5,31.8,43.9,42.7,70.4,11.2c22.1-26.2,31.4-15.6,38.2,8.4c23.5,83,78.2,151.4,107.2,231.9
			c11.1,30.8,26.4,63.8,66.2,63.9c38.9,0.1,40.4-36.9,53.3-62.2c5.1-9.9,6-22.6,26-32.7c20,78.7,89.5,136.8,79.2,226.4
			c-1.7,14.4,2.7,26.9,17.9,30.9c17.2,4.6,28-6.8,36.1-19.6c26.4-41.5,52-83.6,78.3-125.1c8.6-13.6,18.7-26.3,33.7-39.6
			c2.1,92.8,40.6,176.6,54.8,265.8c2.1,12.9,2.9,26.2,6.6,38.7c5.6,18.9,19.5,30.6,39.1,32.7c17.5,1.9,26.1-11.4,33.5-24.6
			c16-28.3,31.7-56.7,54.6-97.6c9.3,116.1,4.8,215-44.9,307.9c-28,52.4-51,106.5-50.5,167.9c0.7,82.5,25.4,111.1,108.5,116
			c23.7,1.4,18.1,12.1,14.7,25c-15.5,59.1-16.4,120.2-23.1,180.4c-6.1,54.3-32.5,98.9-65.2,141.1c-32.1,41.4-71.3,77.7-94.6,125.5
			c-30.8,63.4-15.9,97.5,55,118.7c-48.6,57.7-101.9,104.4-173.8,124.4c-74.8,20.7-147,46.1-211.8,90.2
			c-24.6,16.7-53.2,25.4-82.8,29.9c-192.6,29.2-385.1,29.4-577.7-0.3c-1.6-0.2-3.4-0.2-4.8-0.8c-125.8-54.2-252.4-106.8-376.8-164
			C545.3,2110,518.1,2081,495.8,2043.8z"/>
		<path d="M1907.9,1182.1c-0.3,93.8-3.9,187.2-22.4,279.4c-9.5,47.3,5.7,76.7,54.5,86.1c4.8,0.9,9.7,2,14.3,3.8
			c25.3,10.1,59.2,13.7,60.7,48.5c1.5,32.8-30.3,39.1-53.7,49.6c-65.8,29.5-66.2,29.5-25.2,89.8c10.6,15.6,20.5,31.4,10.6,49.8
			c-10.4,19.2-29.9,16.5-48.1,15.9c-69-2.1-69-2-61.8,67.3c13.5,130-69.1,248.6-206.3,293.6c-71.9,23.5-145.3,39.4-221.3,44.4
			c-172.5,11.4-343.6,11.3-512.5-35C763,2138.6,633.9,2024,666.2,1842.4c5.6-31.7-5-42.7-35.6-39.4c-14.7,1.6-29.6,2.5-44.2,1.6
			c-37.8-2.4-48.2-23.3-29-56.8c1.6-2.8,4-5.2,5.8-7.9c41.1-61.2,41.1-61-27.9-91.7c-23.5-10.5-53.9-17-50.6-51.4
			c2.9-30.2,31.5-35.3,54-43.3c82.3-29.2,85.6-34,70.6-119.8c-22.9-130.4-18-261.7-10.6-392.7c3.3-57.4,37.1-71.3,82.9-36.3
			c54.1,41.4,92.8,97.3,132,151.9c28.8,40.2,63,54.5,112.4,52.7c216.5-7.8,433.2-7.9,649.8,0.1c48.1,1.8,80.8-13.2,108.5-51.4
			c36.5-50.5,73.9-100.6,120.4-142.9c19.6-17.9,41.3-36.5,70-24.6c28.2,11.6,24.5,39.6,25.9,63.9
			C1903,1097,1905.4,1139.5,1907.9,1182.1z"/>
		<path class="st3" d="M574.8,1606.1c91-47.9,105.5-78.4,88.5-172.7c-22.2-123.2-16.2-246.8-12.2-377.5c45.1,26.6,66.4,63.9,92,96.5
			c87.2,111.4,86.9,110.8,229.7,108.2c216.6-4,433.2-3.7,649.7,2c34.4,0.9,55.6-8.9,77.4-38c42.4-56.9,83.2-116.3,144-172
			c15.1,124.9,8,238.6-3.8,352.2c-1.3,13-3.6,26-6.2,38.9c-15.8,75.4,3.2,132.9,98.5,160.3c-72.6,25.3-97.9,63.7-69.3,125.3
			c5.5,11.9-1.4,17.7-14,18.9c-23.7,2.3-54.1-12.1-69.3,11.9c-18.7,29.4-4.2,64.3,1,95.7c17.1,102-24.6,176-106.4,230.6
			c-48.6,32.4-105.7,46.7-162.2,55c-204.3,30.1-408.7,36.1-610-21.3c-140-39.9-201.9-138.3-181.7-282.8
			c10.8-76.9,10.8-77.1-65.4-89.2c-13.1-2.1-24.9-4.9-18-20.4C664.3,1667.6,638.5,1630.8,574.8,1606.1z"/>
		<path d="M1251.4,1373.2c107.7,8.7,216.5,31,320.4,74.7c19.2,8.1,35.2,19.7,35.7,42.5c0.7,26.6-17.2,41.6-38.2,52.8
			c-85.1,45.1-175.4,73.5-271.4,82.2c-133.5,12.1-256.4-23.6-373-85.3c-19.7-10.5-34.8-26.3-33.6-50.4c1.1-22.4,17.1-34.5,36.3-42.3
			C1030.2,1405.7,1137,1381.5,1251.4,1373.2z"/>
		<path d="M952.3,1698.6c138.6,26.3,291.5-1.8,443.7,9.1c60,4.3,121-7.6,181.6-9.9c50.7-1.9,65.3,20.2,47.1,67.2
			c-10.1,26-20.4,52-31.6,77.5c-27.6,62.8-71.6,68.5-115.9,15.1c-6.3-7.6-13.9-15.1-17.1-23.9c-21.9-59.9-64.4-77.4-126.1-72.9
			c-71.9,5.2-144.4,3-216.5,1.6c-29-0.5-44.4,11.5-57.6,35.9c-13.9,25.8-30.4,51.2-50.4,72.4c-34.4,36.4-72,30.5-95.8-13.5
			c-12.4-23-20.4-48.3-30.7-72.4C852,1712.8,863.4,1695.1,952.3,1698.6z"/>
		<path class="st4" d="M1249.9,1573.8c-41.5,0.3-79.7-33-80-69.8c-0.3-31.6,39.5-66.8,77.4-68.3c37.8-1.5,84,36.1,83.4,67.8
			C1329.9,1539.3,1290.5,1573.6,1249.9,1573.8z"/>
		<path class="st5" d="M962.8,1495.3c46.4-23.7,90.1-35,133.8-46.1c19.8-5,27.3,3.6,21.6,24.1c-2.6,9.3-3.1,19.4-3.1,29.1
			c0.2,58.5,0.2,58.8-55.1,38.7C1028.5,1529.6,996.1,1519.5,962.8,1495.3z"/>
		<path class="st5" d="M1542.2,1492.6c-49.3,31.7-92.2,45.8-135.5,58.8c-9,2.7-26.4,5.9-25.9-2.5c2-32.2,3.3-63.7-1.4-95.9
			c-1.2-8,17-6.1,25.7-3.5C1447.1,1462,1488.5,1475.5,1542.2,1492.6z"/>
		<path class="st5" d="M1533.4,1752.9c12,2.9,33-5.5,28.3,15.8c-4.9,22.2-6,56.9-31.9,59c-21.2,1.7-35.8-29.6-38.1-50.5
			C1488.6,1748.2,1518,1758.4,1533.4,1752.9z"/>
		<path class="st5" d="M1012.2,1775.2c-15.3,21-20.7,55.6-46.9,52.1c-20.7-2.8-26.1-36.5-27.4-57.6c-1.7-26.5,23.1-14.7,36.9-15
			C989.8,1754.3,1006.9,1755.3,1012.2,1775.2z"/>
		<path d="M1250.1,1534.2c-17.4-2.4-26.2-12.7-26.3-29.7c-0.2-17.3,9.2-28.9,26.3-28.9c17,0.1,26.7,11.8,26.6,28.9
			C1276.6,1521.6,1267,1531.5,1250.1,1534.2z"/>
	</g>
</g>
</svg>
